<mxfile host="Electron" modified="2023-07-04T09:01:08.624Z" agent="Mozilla/5.0 (X11; Linux x86_64) AppleWebKit/537.36 (KHTML, like Gecko) draw.io/21.5.1 Chrome/112.0.5615.204 Electron/24.6.0 Safari/537.36" etag="bZ3JHDuko9jSrPVLnWlU" version="21.5.1" type="device">
  <diagram name="Pagina-1" id="CvmVaPvms-UxlyBjIQ5L">
    <mxGraphModel dx="1434" dy="839" grid="1" gridSize="10" guides="1" tooltips="1" connect="1" arrows="1" fold="1" page="1" pageScale="1" pageWidth="827" pageHeight="1169" math="0" shadow="0">
      <root>
        <mxCell id="0" />
        <mxCell id="1" parent="0" />
        <mxCell id="4EUrBaUepY61Hy6sgjjP-1" value="Organizzatore" style="swimlane;fontStyle=0;childLayout=stackLayout;horizontal=1;startSize=26;fillColor=none;horizontalStack=0;resizeParent=1;resizeParentMax=0;resizeLast=0;collapsible=1;marginBottom=0;whiteSpace=wrap;html=1;" parent="1" vertex="1">
          <mxGeometry x="10" y="62" width="160" height="160" as="geometry" />
        </mxCell>
        <mxCell id="Dn81AKusX0ZPsOJ_SFeg-21" value="id_Organizzatore : integer [1]" style="text;html=1;align=center;verticalAlign=middle;resizable=0;points=[];autosize=1;strokeColor=none;fillColor=none;" parent="4EUrBaUepY61Hy6sgjjP-1" vertex="1">
          <mxGeometry y="26" width="160" height="30" as="geometry" />
        </mxCell>
        <mxCell id="4EUrBaUepY61Hy6sgjjP-2" value="Nome : String" style="text;strokeColor=none;fillColor=none;align=left;verticalAlign=top;spacingLeft=4;spacingRight=4;overflow=hidden;rotatable=0;points=[[0,0.5],[1,0.5]];portConstraint=eastwest;whiteSpace=wrap;html=1;" parent="4EUrBaUepY61Hy6sgjjP-1" vertex="1">
          <mxGeometry y="56" width="160" height="26" as="geometry" />
        </mxCell>
        <mxCell id="4EUrBaUepY61Hy6sgjjP-3" value="Cognome: String" style="text;strokeColor=none;fillColor=none;align=left;verticalAlign=top;spacingLeft=4;spacingRight=4;overflow=hidden;rotatable=0;points=[[0,0.5],[1,0.5]];portConstraint=eastwest;whiteSpace=wrap;html=1;" parent="4EUrBaUepY61Hy6sgjjP-1" vertex="1">
          <mxGeometry y="82" width="160" height="26" as="geometry" />
        </mxCell>
        <mxCell id="4EUrBaUepY61Hy6sgjjP-4" value="Titolo: Titolo_ST" style="text;strokeColor=none;fillColor=none;align=left;verticalAlign=top;spacingLeft=4;spacingRight=4;overflow=hidden;rotatable=0;points=[[0,0.5],[1,0.5]];portConstraint=eastwest;whiteSpace=wrap;html=1;" parent="4EUrBaUepY61Hy6sgjjP-1" vertex="1">
          <mxGeometry y="108" width="160" height="26" as="geometry" />
        </mxCell>
        <mxCell id="4EUrBaUepY61Hy6sgjjP-5" value="Email : String" style="text;strokeColor=none;fillColor=none;align=left;verticalAlign=top;spacingLeft=4;spacingRight=4;overflow=hidden;rotatable=0;points=[[0,0.5],[1,0.5]];portConstraint=eastwest;whiteSpace=wrap;html=1;" parent="4EUrBaUepY61Hy6sgjjP-1" vertex="1">
          <mxGeometry y="134" width="160" height="26" as="geometry" />
        </mxCell>
        <mxCell id="4EUrBaUepY61Hy6sgjjP-6" value="Comitato" style="swimlane;fontStyle=0;childLayout=stackLayout;horizontal=1;startSize=26;fillColor=none;horizontalStack=0;resizeParent=1;resizeParentMax=0;resizeLast=0;collapsible=1;marginBottom=0;whiteSpace=wrap;html=1;" parent="1" vertex="1">
          <mxGeometry x="341" y="62" width="146" height="86" as="geometry" />
        </mxCell>
        <mxCell id="Dn81AKusX0ZPsOJ_SFeg-8" value="&amp;nbsp;id_Comitato: integer [1]" style="text;html=1;align=left;verticalAlign=middle;resizable=0;points=[];autosize=1;strokeColor=none;fillColor=none;" parent="4EUrBaUepY61Hy6sgjjP-6" vertex="1">
          <mxGeometry y="26" width="146" height="30" as="geometry" />
        </mxCell>
        <mxCell id="Dn81AKusX0ZPsOJ_SFeg-9" value="tipologia: Comitato_ST [1]" style="text;html=1;align=center;verticalAlign=middle;resizable=0;points=[];autosize=1;strokeColor=none;fillColor=none;" parent="4EUrBaUepY61Hy6sgjjP-6" vertex="1">
          <mxGeometry y="56" width="146" height="30" as="geometry" />
        </mxCell>
        <mxCell id="4EUrBaUepY61Hy6sgjjP-21" style="edgeStyle=orthogonalEdgeStyle;rounded=0;orthogonalLoop=1;jettySize=auto;html=1;endArrow=diamondThin;endFill=0;endSize=20;" parent="1" source="4EUrBaUepY61Hy6sgjjP-1" target="4EUrBaUepY61Hy6sgjjP-6" edge="1">
          <mxGeometry relative="1" as="geometry">
            <Array as="points">
              <mxPoint x="260" y="105" />
              <mxPoint x="260" y="105" />
            </Array>
          </mxGeometry>
        </mxCell>
        <mxCell id="4EUrBaUepY61Hy6sgjjP-22" value="&lt;font style=&quot;font-size: 15px;&quot;&gt;1...*&lt;/font&gt;" style="text;html=1;align=center;verticalAlign=middle;resizable=0;points=[];autosize=1;strokeColor=none;fillColor=none;" parent="1" vertex="1">
          <mxGeometry x="165" y="80" width="50" height="30" as="geometry" />
        </mxCell>
        <mxCell id="4EUrBaUepY61Hy6sgjjP-23" value="&lt;font style=&quot;font-size: 15px;&quot;&gt;*&lt;/font&gt;" style="text;html=1;align=center;verticalAlign=middle;resizable=0;points=[];autosize=1;strokeColor=none;fillColor=none;fontSize=12;fontFamily=Helvetica;fontColor=default;" parent="1" vertex="1">
          <mxGeometry x="310" y="70" width="30" height="30" as="geometry" />
        </mxCell>
        <mxCell id="4EUrBaUepY61Hy6sgjjP-29" style="edgeStyle=orthogonalEdgeStyle;rounded=0;orthogonalLoop=1;jettySize=auto;html=1;exitX=0.5;exitY=0;exitDx=0;exitDy=0;fontFamily=Helvetica;fontSize=12;fontColor=default;endArrow=none;endFill=0;" parent="1" source="4EUrBaUepY61Hy6sgjjP-32" target="4EUrBaUepY61Hy6sgjjP-6" edge="1">
          <mxGeometry relative="1" as="geometry" />
        </mxCell>
        <mxCell id="4EUrBaUepY61Hy6sgjjP-24" value="Conferenza" style="swimlane;fontStyle=0;childLayout=stackLayout;horizontal=1;startSize=26;fillColor=none;horizontalStack=0;resizeParent=1;resizeParentMax=0;resizeLast=0;collapsible=1;marginBottom=0;whiteSpace=wrap;html=1;fontFamily=Helvetica;fontSize=12;fontColor=default;" parent="1" vertex="1">
          <mxGeometry x="321" y="288" width="186" height="160" as="geometry" />
        </mxCell>
        <mxCell id="Dn81AKusX0ZPsOJ_SFeg-11" value="&amp;nbsp;id_Conferenza : integer [1]" style="text;html=1;align=left;verticalAlign=middle;resizable=0;points=[];autosize=1;strokeColor=none;fillColor=none;" parent="4EUrBaUepY61Hy6sgjjP-24" vertex="1">
          <mxGeometry y="26" width="186" height="30" as="geometry" />
        </mxCell>
        <mxCell id="4EUrBaUepY61Hy6sgjjP-25" value="Titolo: String [1]" style="text;strokeColor=none;fillColor=none;align=left;verticalAlign=top;spacingLeft=4;spacingRight=4;overflow=hidden;rotatable=0;points=[[0,0.5],[1,0.5]];portConstraint=eastwest;whiteSpace=wrap;html=1;fontSize=12;fontFamily=Helvetica;fontColor=default;" parent="4EUrBaUepY61Hy6sgjjP-24" vertex="1">
          <mxGeometry y="56" width="186" height="26" as="geometry" />
        </mxCell>
        <mxCell id="4EUrBaUepY61Hy6sgjjP-26" value="Data_inizio: timestamp" style="text;strokeColor=none;fillColor=none;align=left;verticalAlign=top;spacingLeft=4;spacingRight=4;overflow=hidden;rotatable=0;points=[[0,0.5],[1,0.5]];portConstraint=eastwest;whiteSpace=wrap;html=1;fontSize=12;fontFamily=Helvetica;fontColor=default;" parent="4EUrBaUepY61Hy6sgjjP-24" vertex="1">
          <mxGeometry y="82" width="186" height="26" as="geometry" />
        </mxCell>
        <mxCell id="4EUrBaUepY61Hy6sgjjP-27" value="Data_fine: timestamp" style="text;strokeColor=none;fillColor=none;align=left;verticalAlign=top;spacingLeft=4;spacingRight=4;overflow=hidden;rotatable=0;points=[[0,0.5],[1,0.5]];portConstraint=eastwest;whiteSpace=wrap;html=1;fontSize=12;fontFamily=Helvetica;fontColor=default;" parent="4EUrBaUepY61Hy6sgjjP-24" vertex="1">
          <mxGeometry y="108" width="186" height="26" as="geometry" />
        </mxCell>
        <mxCell id="4EUrBaUepY61Hy6sgjjP-28" value="Descrizione: String" style="text;strokeColor=none;fillColor=none;align=left;verticalAlign=top;spacingLeft=4;spacingRight=4;overflow=hidden;rotatable=0;points=[[0,0.5],[1,0.5]];portConstraint=eastwest;whiteSpace=wrap;html=1;fontSize=12;fontFamily=Helvetica;fontColor=default;" parent="4EUrBaUepY61Hy6sgjjP-24" vertex="1">
          <mxGeometry y="134" width="186" height="26" as="geometry" />
        </mxCell>
        <mxCell id="4EUrBaUepY61Hy6sgjjP-30" value="2" style="text;html=1;align=center;verticalAlign=middle;resizable=0;points=[];autosize=1;strokeColor=none;fillColor=none;fontSize=12;fontFamily=Helvetica;fontColor=default;" parent="1" vertex="1">
          <mxGeometry x="385" y="148" width="30" height="30" as="geometry" />
        </mxCell>
        <mxCell id="4EUrBaUepY61Hy6sgjjP-31" value="1" style="text;html=1;align=center;verticalAlign=middle;resizable=0;points=[];autosize=1;strokeColor=none;fillColor=none;fontSize=12;fontFamily=Helvetica;fontColor=default;" parent="1" vertex="1">
          <mxGeometry x="385" y="260" width="30" height="30" as="geometry" />
        </mxCell>
        <mxCell id="4EUrBaUepY61Hy6sgjjP-33" value="" style="edgeStyle=orthogonalEdgeStyle;rounded=0;orthogonalLoop=1;jettySize=auto;html=1;exitX=0.5;exitY=0;exitDx=0;exitDy=0;fontFamily=Helvetica;fontSize=12;fontColor=default;endArrow=none;endFill=0;" parent="1" source="4EUrBaUepY61Hy6sgjjP-24" target="4EUrBaUepY61Hy6sgjjP-32" edge="1">
          <mxGeometry relative="1" as="geometry">
            <mxPoint x="414" y="290" as="sourcePoint" />
            <mxPoint x="414" y="170" as="targetPoint" />
          </mxGeometry>
        </mxCell>
        <mxCell id="4EUrBaUepY61Hy6sgjjP-32" value="ha" style="text;html=1;align=center;verticalAlign=middle;resizable=0;points=[];autosize=1;strokeColor=none;fillColor=none;fontSize=12;fontFamily=Helvetica;fontColor=default;" parent="1" vertex="1">
          <mxGeometry x="394" y="218" width="40" height="30" as="geometry" />
        </mxCell>
        <mxCell id="8OHhEzNEOEEAv_LkR56g-3" style="edgeStyle=orthogonalEdgeStyle;rounded=0;orthogonalLoop=1;jettySize=auto;html=1;exitX=0.5;exitY=0;exitDx=0;exitDy=0;endArrow=none;endFill=0;" parent="1" source="4EUrBaUepY61Hy6sgjjP-34" target="4EUrBaUepY61Hy6sgjjP-38" edge="1">
          <mxGeometry relative="1" as="geometry">
            <Array as="points">
              <mxPoint x="720" y="240" />
            </Array>
          </mxGeometry>
        </mxCell>
        <mxCell id="4EUrBaUepY61Hy6sgjjP-34" value="Sponsor" style="swimlane;fontStyle=0;childLayout=stackLayout;horizontal=1;startSize=26;fillColor=none;horizontalStack=0;resizeParent=1;resizeParentMax=0;resizeLast=0;collapsible=1;marginBottom=0;whiteSpace=wrap;html=1;fontFamily=Helvetica;fontSize=12;fontColor=default;" parent="1" vertex="1">
          <mxGeometry x="650" y="288" width="140" height="82" as="geometry" />
        </mxCell>
        <mxCell id="Dn81AKusX0ZPsOJ_SFeg-13" value="id_Sponsor : integer [1]" style="text;html=1;align=center;verticalAlign=middle;resizable=0;points=[];autosize=1;strokeColor=none;fillColor=none;" parent="4EUrBaUepY61Hy6sgjjP-34" vertex="1">
          <mxGeometry y="26" width="140" height="30" as="geometry" />
        </mxCell>
        <mxCell id="4EUrBaUepY61Hy6sgjjP-35" value="Nome : String" style="text;strokeColor=none;fillColor=none;align=left;verticalAlign=top;spacingLeft=4;spacingRight=4;overflow=hidden;rotatable=0;points=[[0,0.5],[1,0.5]];portConstraint=eastwest;whiteSpace=wrap;html=1;fontSize=12;fontFamily=Helvetica;fontColor=default;" parent="4EUrBaUepY61Hy6sgjjP-34" vertex="1">
          <mxGeometry y="56" width="140" height="26" as="geometry" />
        </mxCell>
        <mxCell id="4EUrBaUepY61Hy6sgjjP-38" value="Sponsorizzazione" style="swimlane;fontStyle=1;align=center;verticalAlign=top;childLayout=stackLayout;horizontal=1;startSize=26;horizontalStack=0;resizeParent=1;resizeParentMax=0;resizeLast=0;collapsible=1;marginBottom=0;whiteSpace=wrap;html=1;fontFamily=Helvetica;fontSize=12;fontColor=default;fillColor=none;gradientColor=none;" parent="1" vertex="1">
          <mxGeometry x="500" y="200" width="160" height="52" as="geometry" />
        </mxCell>
        <mxCell id="4EUrBaUepY61Hy6sgjjP-39" value="Contributo: numeric(1000,2)" style="text;strokeColor=none;fillColor=none;align=left;verticalAlign=top;spacingLeft=4;spacingRight=4;overflow=hidden;rotatable=0;points=[[0,0.5],[1,0.5]];portConstraint=eastwest;whiteSpace=wrap;html=1;fontSize=12;fontFamily=Helvetica;fontColor=default;" parent="4EUrBaUepY61Hy6sgjjP-38" vertex="1">
          <mxGeometry y="26" width="160" height="26" as="geometry" />
        </mxCell>
        <mxCell id="4EUrBaUepY61Hy6sgjjP-71" style="edgeStyle=orthogonalEdgeStyle;rounded=0;orthogonalLoop=1;jettySize=auto;html=1;exitX=0.75;exitY=0;exitDx=0;exitDy=0;entryX=0.5;entryY=0;entryDx=0;entryDy=0;fontFamily=Helvetica;fontSize=12;fontColor=default;endArrow=none;endFill=0;" parent="1" source="4EUrBaUepY61Hy6sgjjP-51" target="4EUrBaUepY61Hy6sgjjP-1" edge="1">
          <mxGeometry relative="1" as="geometry">
            <Array as="points">
              <mxPoint x="320" y="130" />
              <mxPoint x="220" y="130" />
              <mxPoint x="220" y="42" />
              <mxPoint x="90" y="42" />
            </Array>
          </mxGeometry>
        </mxCell>
        <mxCell id="4EUrBaUepY61Hy6sgjjP-51" value="Ente" style="swimlane;fontStyle=0;childLayout=stackLayout;horizontal=1;startSize=26;fillColor=none;horizontalStack=0;resizeParent=1;resizeParentMax=0;resizeLast=0;collapsible=1;marginBottom=0;whiteSpace=wrap;html=1;fontFamily=Helvetica;fontSize=12;fontColor=default;" parent="1" vertex="1">
          <mxGeometry x="220" y="166" width="140" height="108" as="geometry" />
        </mxCell>
        <mxCell id="Dn81AKusX0ZPsOJ_SFeg-12" value="id_ente : integer [1]" style="text;html=1;align=center;verticalAlign=middle;resizable=0;points=[];autosize=1;strokeColor=none;fillColor=none;" parent="4EUrBaUepY61Hy6sgjjP-51" vertex="1">
          <mxGeometry y="26" width="140" height="30" as="geometry" />
        </mxCell>
        <mxCell id="4EUrBaUepY61Hy6sgjjP-52" value="Nome : String" style="text;strokeColor=none;fillColor=none;align=left;verticalAlign=top;spacingLeft=4;spacingRight=4;overflow=hidden;rotatable=0;points=[[0,0.5],[1,0.5]];portConstraint=eastwest;whiteSpace=wrap;html=1;fontSize=12;fontFamily=Helvetica;fontColor=default;" parent="4EUrBaUepY61Hy6sgjjP-51" vertex="1">
          <mxGeometry y="56" width="140" height="26" as="geometry" />
        </mxCell>
        <mxCell id="4EUrBaUepY61Hy6sgjjP-53" value="Sigla : String" style="text;strokeColor=none;fillColor=none;align=left;verticalAlign=top;spacingLeft=4;spacingRight=4;overflow=hidden;rotatable=0;points=[[0,0.5],[1,0.5]];portConstraint=eastwest;whiteSpace=wrap;html=1;fontSize=12;fontFamily=Helvetica;fontColor=default;" parent="4EUrBaUepY61Hy6sgjjP-51" vertex="1">
          <mxGeometry y="82" width="140" height="26" as="geometry" />
        </mxCell>
        <mxCell id="4EUrBaUepY61Hy6sgjjP-64" style="edgeStyle=orthogonalEdgeStyle;rounded=0;orthogonalLoop=1;jettySize=auto;html=1;exitX=0.5;exitY=0;exitDx=0;exitDy=0;fontFamily=Helvetica;fontSize=12;fontColor=default;endArrow=diamondThin;endFill=1;endSize=20;" parent="1" source="4EUrBaUepY61Hy6sgjjP-60" target="4EUrBaUepY61Hy6sgjjP-24" edge="1">
          <mxGeometry relative="1" as="geometry" />
        </mxCell>
        <mxCell id="CctrhRpK3LrzLkIw9ZLC-5" style="edgeStyle=orthogonalEdgeStyle;rounded=0;orthogonalLoop=1;jettySize=auto;html=1;exitX=0;exitY=0;exitDx=0;exitDy=0;endArrow=none;endFill=0;" parent="1" source="4EUrBaUepY61Hy6sgjjP-60" target="4EUrBaUepY61Hy6sgjjP-1" edge="1">
          <mxGeometry relative="1" as="geometry">
            <Array as="points">
              <mxPoint x="344" y="540" />
              <mxPoint x="20" y="540" />
            </Array>
          </mxGeometry>
        </mxCell>
        <mxCell id="4EUrBaUepY61Hy6sgjjP-60" value="Sessione" style="swimlane;fontStyle=0;childLayout=stackLayout;horizontal=1;startSize=26;fillColor=none;horizontalStack=0;resizeParent=1;resizeParentMax=0;resizeLast=0;collapsible=1;marginBottom=0;whiteSpace=wrap;html=1;fontFamily=Helvetica;fontSize=12;fontColor=default;" parent="1" vertex="1">
          <mxGeometry x="344" y="500" width="140" height="134" as="geometry" />
        </mxCell>
        <mxCell id="Dn81AKusX0ZPsOJ_SFeg-19" value="id_Sessione : integer [1]" style="text;html=1;align=center;verticalAlign=middle;resizable=0;points=[];autosize=1;strokeColor=none;fillColor=none;" parent="4EUrBaUepY61Hy6sgjjP-60" vertex="1">
          <mxGeometry y="26" width="140" height="30" as="geometry" />
        </mxCell>
        <mxCell id="4EUrBaUepY61Hy6sgjjP-61" value="Nome : String" style="text;strokeColor=none;fillColor=none;align=left;verticalAlign=top;spacingLeft=4;spacingRight=4;overflow=hidden;rotatable=0;points=[[0,0.5],[1,0.5]];portConstraint=eastwest;whiteSpace=wrap;html=1;fontSize=12;fontFamily=Helvetica;fontColor=default;" parent="4EUrBaUepY61Hy6sgjjP-60" vertex="1">
          <mxGeometry y="56" width="140" height="26" as="geometry" />
        </mxCell>
        <mxCell id="4EUrBaUepY61Hy6sgjjP-62" value="Data_inizio: timestamp" style="text;strokeColor=none;fillColor=none;align=left;verticalAlign=top;spacingLeft=4;spacingRight=4;overflow=hidden;rotatable=0;points=[[0,0.5],[1,0.5]];portConstraint=eastwest;whiteSpace=wrap;html=1;fontSize=12;fontFamily=Helvetica;fontColor=default;" parent="4EUrBaUepY61Hy6sgjjP-60" vertex="1">
          <mxGeometry y="82" width="140" height="26" as="geometry" />
        </mxCell>
        <mxCell id="4EUrBaUepY61Hy6sgjjP-63" value="Data_fine : timestamp" style="text;strokeColor=none;fillColor=none;align=left;verticalAlign=top;spacingLeft=4;spacingRight=4;overflow=hidden;rotatable=0;points=[[0,0.5],[1,0.5]];portConstraint=eastwest;whiteSpace=wrap;html=1;fontSize=12;fontFamily=Helvetica;fontColor=default;" parent="4EUrBaUepY61Hy6sgjjP-60" vertex="1">
          <mxGeometry y="108" width="140" height="26" as="geometry" />
        </mxCell>
        <mxCell id="4EUrBaUepY61Hy6sgjjP-65" value="&lt;font style=&quot;font-size: 15px;&quot;&gt;1&lt;/font&gt;" style="text;html=1;align=center;verticalAlign=middle;resizable=0;points=[];autosize=1;strokeColor=none;fillColor=none;fontSize=12;fontFamily=Helvetica;fontColor=default;" parent="1" vertex="1">
          <mxGeometry x="425" y="448" width="30" height="30" as="geometry" />
        </mxCell>
        <mxCell id="4EUrBaUepY61Hy6sgjjP-66" value="&lt;font style=&quot;font-size: 15px;&quot;&gt;*&lt;/font&gt;" style="text;html=1;align=center;verticalAlign=middle;resizable=0;points=[];autosize=1;strokeColor=none;fillColor=none;fontSize=12;fontFamily=Helvetica;fontColor=default;" parent="1" vertex="1">
          <mxGeometry x="425" y="470" width="30" height="30" as="geometry" />
        </mxCell>
        <mxCell id="mUlWQSSshUq4uLIK7Gqg-2" style="edgeStyle=orthogonalEdgeStyle;rounded=0;orthogonalLoop=1;jettySize=auto;html=1;exitX=0.5;exitY=0;exitDx=0;exitDy=0;endArrow=none;endFill=0;" parent="1" source="4EUrBaUepY61Hy6sgjjP-72" target="4EUrBaUepY61Hy6sgjjP-24" edge="1">
          <mxGeometry relative="1" as="geometry">
            <Array as="points">
              <mxPoint x="660" y="430" />
              <mxPoint x="660" y="410" />
            </Array>
          </mxGeometry>
        </mxCell>
        <mxCell id="4EUrBaUepY61Hy6sgjjP-72" value="Sede" style="swimlane;fontStyle=0;childLayout=stackLayout;horizontal=1;startSize=26;fillColor=none;horizontalStack=0;resizeParent=1;resizeParentMax=0;resizeLast=0;collapsible=1;marginBottom=0;whiteSpace=wrap;html=1;fontFamily=Helvetica;fontSize=12;fontColor=default;" parent="1" vertex="1">
          <mxGeometry x="555" y="430" width="140" height="82" as="geometry" />
        </mxCell>
        <mxCell id="Dn81AKusX0ZPsOJ_SFeg-15" value="&amp;nbsp;id_Sede : integer [1]" style="text;html=1;align=left;verticalAlign=middle;resizable=0;points=[];autosize=1;strokeColor=none;fillColor=none;" parent="4EUrBaUepY61Hy6sgjjP-72" vertex="1">
          <mxGeometry y="26" width="140" height="30" as="geometry" />
        </mxCell>
        <mxCell id="4EUrBaUepY61Hy6sgjjP-73" value="Nome: String" style="text;strokeColor=none;fillColor=none;align=left;verticalAlign=top;spacingLeft=4;spacingRight=4;overflow=hidden;rotatable=0;points=[[0,0.5],[1,0.5]];portConstraint=eastwest;whiteSpace=wrap;html=1;fontSize=12;fontFamily=Helvetica;fontColor=default;" parent="4EUrBaUepY61Hy6sgjjP-72" vertex="1">
          <mxGeometry y="56" width="140" height="26" as="geometry" />
        </mxCell>
        <mxCell id="4EUrBaUepY61Hy6sgjjP-85" style="edgeStyle=orthogonalEdgeStyle;rounded=0;orthogonalLoop=1;jettySize=auto;html=1;exitX=0.5;exitY=0;exitDx=0;exitDy=0;fontFamily=Helvetica;fontSize=12;fontColor=default;endArrow=diamondThin;endFill=1;endSize=20;" parent="1" source="4EUrBaUepY61Hy6sgjjP-81" target="4EUrBaUepY61Hy6sgjjP-72" edge="1">
          <mxGeometry relative="1" as="geometry">
            <Array as="points">
              <mxPoint x="625" y="756" />
            </Array>
          </mxGeometry>
        </mxCell>
        <mxCell id="4EUrBaUepY61Hy6sgjjP-81" value="Sala" style="swimlane;fontStyle=0;childLayout=stackLayout;horizontal=1;startSize=26;fillColor=none;horizontalStack=0;resizeParent=1;resizeParentMax=0;resizeLast=0;collapsible=1;marginBottom=0;whiteSpace=wrap;html=1;fontFamily=Helvetica;fontSize=12;fontColor=default;" parent="1" vertex="1">
          <mxGeometry x="590" y="756" width="140" height="108" as="geometry" />
        </mxCell>
        <mxCell id="Dn81AKusX0ZPsOJ_SFeg-17" value="id_sala : integer [1]" style="text;html=1;align=center;verticalAlign=middle;resizable=0;points=[];autosize=1;strokeColor=none;fillColor=none;" parent="4EUrBaUepY61Hy6sgjjP-81" vertex="1">
          <mxGeometry y="26" width="140" height="30" as="geometry" />
        </mxCell>
        <mxCell id="4EUrBaUepY61Hy6sgjjP-82" value="Nome: String[1]" style="text;strokeColor=none;fillColor=none;align=left;verticalAlign=top;spacingLeft=4;spacingRight=4;overflow=hidden;rotatable=0;points=[[0,0.5],[1,0.5]];portConstraint=eastwest;whiteSpace=wrap;html=1;fontSize=12;fontFamily=Helvetica;fontColor=default;" parent="4EUrBaUepY61Hy6sgjjP-81" vertex="1">
          <mxGeometry y="56" width="140" height="26" as="geometry" />
        </mxCell>
        <mxCell id="4EUrBaUepY61Hy6sgjjP-83" value="Capienza: integer[1]" style="text;strokeColor=none;fillColor=none;align=left;verticalAlign=top;spacingLeft=4;spacingRight=4;overflow=hidden;rotatable=0;points=[[0,0.5],[1,0.5]];portConstraint=eastwest;whiteSpace=wrap;html=1;fontSize=12;fontFamily=Helvetica;fontColor=default;" parent="4EUrBaUepY61Hy6sgjjP-81" vertex="1">
          <mxGeometry y="82" width="140" height="26" as="geometry" />
        </mxCell>
        <mxCell id="4EUrBaUepY61Hy6sgjjP-86" style="edgeStyle=orthogonalEdgeStyle;rounded=0;orthogonalLoop=1;jettySize=auto;html=1;exitX=1;exitY=0.5;exitDx=0;exitDy=0;fontFamily=Helvetica;fontSize=12;fontColor=default;endArrow=none;endFill=0;" parent="1" source="4EUrBaUepY61Hy6sgjjP-62" target="4EUrBaUepY61Hy6sgjjP-82" edge="1">
          <mxGeometry relative="1" as="geometry" />
        </mxCell>
        <mxCell id="4EUrBaUepY61Hy6sgjjP-87" value="*" style="text;html=1;align=center;verticalAlign=middle;resizable=0;points=[];autosize=1;strokeColor=none;fillColor=none;fontSize=12;fontFamily=Helvetica;fontColor=default;" parent="1" vertex="1">
          <mxGeometry x="507" y="380" width="30" height="30" as="geometry" />
        </mxCell>
        <mxCell id="4EUrBaUepY61Hy6sgjjP-88" value="1" style="text;html=1;align=center;verticalAlign=middle;resizable=0;points=[];autosize=1;strokeColor=none;fillColor=none;fontSize=12;fontFamily=Helvetica;fontColor=default;" parent="1" vertex="1">
          <mxGeometry x="720" y="400" width="30" height="30" as="geometry" />
        </mxCell>
        <mxCell id="4EUrBaUepY61Hy6sgjjP-89" value="*" style="text;html=1;align=center;verticalAlign=middle;resizable=0;points=[];autosize=1;strokeColor=none;fillColor=none;fontSize=12;fontFamily=Helvetica;fontColor=default;" parent="1" vertex="1">
          <mxGeometry x="484" y="568" width="30" height="30" as="geometry" />
        </mxCell>
        <mxCell id="4EUrBaUepY61Hy6sgjjP-90" value="1" style="text;html=1;align=center;verticalAlign=middle;resizable=0;points=[];autosize=1;strokeColor=none;fillColor=none;fontSize=12;fontFamily=Helvetica;fontColor=default;" parent="1" vertex="1">
          <mxGeometry x="595" y="726" width="30" height="30" as="geometry" />
        </mxCell>
        <mxCell id="4EUrBaUepY61Hy6sgjjP-95" style="edgeStyle=orthogonalEdgeStyle;rounded=0;orthogonalLoop=1;jettySize=auto;html=1;exitX=0.5;exitY=0;exitDx=0;exitDy=0;fontFamily=Helvetica;fontSize=12;fontColor=default;endArrow=none;endFill=0;" parent="1" source="4EUrBaUepY61Hy6sgjjP-91" target="4EUrBaUepY61Hy6sgjjP-60" edge="1">
          <mxGeometry relative="1" as="geometry" />
        </mxCell>
        <mxCell id="oplTFMq57OWzlQ45hFhS-2" style="edgeStyle=orthogonalEdgeStyle;rounded=0;orthogonalLoop=1;jettySize=auto;html=1;exitX=0.25;exitY=1;exitDx=0;exitDy=0;endArrow=none;endFill=0;" parent="1" source="4EUrBaUepY61Hy6sgjjP-91" target="4EUrBaUepY61Hy6sgjjP-101" edge="1">
          <mxGeometry relative="1" as="geometry">
            <Array as="points">
              <mxPoint x="379" y="840" />
              <mxPoint x="60" y="840" />
            </Array>
          </mxGeometry>
        </mxCell>
        <mxCell id="4EUrBaUepY61Hy6sgjjP-91" value="Programma" style="swimlane;fontStyle=0;childLayout=stackLayout;horizontal=1;startSize=26;fillColor=none;horizontalStack=0;resizeParent=1;resizeParentMax=0;resizeLast=0;collapsible=1;marginBottom=0;whiteSpace=wrap;html=1;fontFamily=Helvetica;fontSize=12;fontColor=default;" parent="1" vertex="1">
          <mxGeometry x="341" y="704" width="146" height="56" as="geometry" />
        </mxCell>
        <mxCell id="Dn81AKusX0ZPsOJ_SFeg-22" value="id_Programma : integer [1]" style="text;html=1;align=center;verticalAlign=middle;resizable=0;points=[];autosize=1;strokeColor=none;fillColor=none;" parent="4EUrBaUepY61Hy6sgjjP-91" vertex="1">
          <mxGeometry y="26" width="146" height="30" as="geometry" />
        </mxCell>
        <mxCell id="4EUrBaUepY61Hy6sgjjP-100" style="edgeStyle=orthogonalEdgeStyle;rounded=0;orthogonalLoop=1;jettySize=auto;html=1;fontFamily=Helvetica;fontSize=12;fontColor=default;endArrow=diamondThin;endFill=1;endSize=20;" parent="1" source="4EUrBaUepY61Hy6sgjjP-117" target="4EUrBaUepY61Hy6sgjjP-91" edge="1">
          <mxGeometry relative="1" as="geometry">
            <mxPoint x="414" y="820" as="sourcePoint" />
            <Array as="points">
              <mxPoint x="289" y="880" />
              <mxPoint x="440" y="880" />
            </Array>
          </mxGeometry>
        </mxCell>
        <mxCell id="4EUrBaUepY61Hy6sgjjP-115" style="edgeStyle=orthogonalEdgeStyle;rounded=0;orthogonalLoop=1;jettySize=auto;html=1;exitX=0.75;exitY=0;exitDx=0;exitDy=0;fontFamily=Helvetica;fontSize=12;fontColor=default;endArrow=none;endFill=0;" parent="1" source="4EUrBaUepY61Hy6sgjjP-101" target="4EUrBaUepY61Hy6sgjjP-51" edge="1">
          <mxGeometry relative="1" as="geometry">
            <mxPoint x="140" y="420" as="targetPoint" />
            <Array as="points">
              <mxPoint x="50" y="648" />
              <mxPoint x="50" y="240" />
            </Array>
          </mxGeometry>
        </mxCell>
        <mxCell id="4EUrBaUepY61Hy6sgjjP-101" value="Speaker" style="swimlane;fontStyle=0;childLayout=stackLayout;horizontal=1;startSize=26;fillColor=none;horizontalStack=0;resizeParent=1;resizeParentMax=0;resizeLast=0;collapsible=1;marginBottom=0;whiteSpace=wrap;html=1;fontFamily=Helvetica;fontSize=12;fontColor=default;" parent="1" vertex="1">
          <mxGeometry x="20" y="648" width="140" height="160" as="geometry" />
        </mxCell>
        <mxCell id="Dn81AKusX0ZPsOJ_SFeg-26" value="id_Speaker : integer [1]" style="text;html=1;align=center;verticalAlign=middle;resizable=0;points=[];autosize=1;strokeColor=none;fillColor=none;" parent="4EUrBaUepY61Hy6sgjjP-101" vertex="1">
          <mxGeometry y="26" width="140" height="30" as="geometry" />
        </mxCell>
        <mxCell id="4EUrBaUepY61Hy6sgjjP-106" value="Cognome: String [1]" style="text;strokeColor=none;fillColor=none;align=left;verticalAlign=top;spacingLeft=4;spacingRight=4;overflow=hidden;rotatable=0;points=[[0,0.5],[1,0.5]];portConstraint=eastwest;whiteSpace=wrap;html=1;" parent="4EUrBaUepY61Hy6sgjjP-101" vertex="1">
          <mxGeometry y="56" width="140" height="26" as="geometry" />
        </mxCell>
        <mxCell id="4EUrBaUepY61Hy6sgjjP-107" value="Titolo: Titolo_ST[1]" style="text;strokeColor=none;fillColor=none;align=left;verticalAlign=top;spacingLeft=4;spacingRight=4;overflow=hidden;rotatable=0;points=[[0,0.5],[1,0.5]];portConstraint=eastwest;whiteSpace=wrap;html=1;" parent="4EUrBaUepY61Hy6sgjjP-101" vertex="1">
          <mxGeometry y="82" width="140" height="26" as="geometry" />
        </mxCell>
        <mxCell id="4EUrBaUepY61Hy6sgjjP-108" value="Email : String" style="text;strokeColor=none;fillColor=none;align=left;verticalAlign=top;spacingLeft=4;spacingRight=4;overflow=hidden;rotatable=0;points=[[0,0.5],[1,0.5]];portConstraint=eastwest;whiteSpace=wrap;html=1;" parent="4EUrBaUepY61Hy6sgjjP-101" vertex="1">
          <mxGeometry y="108" width="140" height="26" as="geometry" />
        </mxCell>
        <mxCell id="4EUrBaUepY61Hy6sgjjP-105" value="Nome : String [1]" style="text;strokeColor=none;fillColor=none;align=left;verticalAlign=top;spacingLeft=4;spacingRight=4;overflow=hidden;rotatable=0;points=[[0,0.5],[1,0.5]];portConstraint=eastwest;whiteSpace=wrap;html=1;" parent="4EUrBaUepY61Hy6sgjjP-101" vertex="1">
          <mxGeometry y="134" width="140" height="26" as="geometry" />
        </mxCell>
        <mxCell id="4EUrBaUepY61Hy6sgjjP-114" style="edgeStyle=orthogonalEdgeStyle;rounded=0;orthogonalLoop=1;jettySize=auto;html=1;exitX=0.25;exitY=0;exitDx=0;exitDy=0;fontFamily=Helvetica;fontSize=12;fontColor=default;endArrow=none;endFill=0;" parent="1" source="4EUrBaUepY61Hy6sgjjP-109" target="4EUrBaUepY61Hy6sgjjP-51" edge="1">
          <mxGeometry relative="1" as="geometry">
            <Array as="points">
              <mxPoint x="230" y="648" />
            </Array>
          </mxGeometry>
        </mxCell>
        <mxCell id="4EUrBaUepY61Hy6sgjjP-116" style="edgeStyle=orthogonalEdgeStyle;rounded=0;orthogonalLoop=1;jettySize=auto;html=1;exitX=0.5;exitY=0;exitDx=0;exitDy=0;fontFamily=Helvetica;fontSize=12;fontColor=default;entryX=0;entryY=0.5;entryDx=0;entryDy=0;endArrow=none;endFill=0;" parent="1" source="4EUrBaUepY61Hy6sgjjP-109" target="4EUrBaUepY61Hy6sgjjP-63" edge="1">
          <mxGeometry relative="1" as="geometry">
            <Array as="points">
              <mxPoint x="280" y="648" />
              <mxPoint x="280" y="560" />
              <mxPoint x="344" y="560" />
            </Array>
          </mxGeometry>
        </mxCell>
        <mxCell id="4EUrBaUepY61Hy6sgjjP-109" value="Partecipante" style="swimlane;fontStyle=0;childLayout=stackLayout;horizontal=1;startSize=26;fillColor=none;horizontalStack=0;resizeParent=1;resizeParentMax=0;resizeLast=0;collapsible=1;marginBottom=0;whiteSpace=wrap;html=1;fontFamily=Helvetica;fontSize=12;fontColor=default;" parent="1" vertex="1">
          <mxGeometry x="174" y="648" width="156" height="160" as="geometry" />
        </mxCell>
        <mxCell id="Dn81AKusX0ZPsOJ_SFeg-23" value="id_Partecipante : integer [1]" style="text;html=1;align=center;verticalAlign=middle;resizable=0;points=[];autosize=1;strokeColor=none;fillColor=none;" parent="4EUrBaUepY61Hy6sgjjP-109" vertex="1">
          <mxGeometry y="26" width="156" height="30" as="geometry" />
        </mxCell>
        <mxCell id="4EUrBaUepY61Hy6sgjjP-110" value="Cognome: String [1]" style="text;strokeColor=none;fillColor=none;align=left;verticalAlign=top;spacingLeft=4;spacingRight=4;overflow=hidden;rotatable=0;points=[[0,0.5],[1,0.5]];portConstraint=eastwest;whiteSpace=wrap;html=1;" parent="4EUrBaUepY61Hy6sgjjP-109" vertex="1">
          <mxGeometry y="56" width="156" height="26" as="geometry" />
        </mxCell>
        <mxCell id="4EUrBaUepY61Hy6sgjjP-111" value="Titolo: Titolo_ST[1]" style="text;strokeColor=none;fillColor=none;align=left;verticalAlign=top;spacingLeft=4;spacingRight=4;overflow=hidden;rotatable=0;points=[[0,0.5],[1,0.5]];portConstraint=eastwest;whiteSpace=wrap;html=1;" parent="4EUrBaUepY61Hy6sgjjP-109" vertex="1">
          <mxGeometry y="82" width="156" height="26" as="geometry" />
        </mxCell>
        <mxCell id="4EUrBaUepY61Hy6sgjjP-112" value="Email : String" style="text;strokeColor=none;fillColor=none;align=left;verticalAlign=top;spacingLeft=4;spacingRight=4;overflow=hidden;rotatable=0;points=[[0,0.5],[1,0.5]];portConstraint=eastwest;whiteSpace=wrap;html=1;" parent="4EUrBaUepY61Hy6sgjjP-109" vertex="1">
          <mxGeometry y="108" width="156" height="26" as="geometry" />
        </mxCell>
        <mxCell id="4EUrBaUepY61Hy6sgjjP-113" value="Nome : String [1]" style="text;strokeColor=none;fillColor=none;align=left;verticalAlign=top;spacingLeft=4;spacingRight=4;overflow=hidden;rotatable=0;points=[[0,0.5],[1,0.5]];portConstraint=eastwest;whiteSpace=wrap;html=1;" parent="4EUrBaUepY61Hy6sgjjP-109" vertex="1">
          <mxGeometry y="134" width="156" height="26" as="geometry" />
        </mxCell>
        <mxCell id="4EUrBaUepY61Hy6sgjjP-135" style="edgeStyle=orthogonalEdgeStyle;rounded=0;orthogonalLoop=1;jettySize=auto;html=1;exitX=0;exitY=0.5;exitDx=0;exitDy=0;fontFamily=Helvetica;fontSize=12;fontColor=default;endArrow=none;endFill=0;" parent="1" source="4EUrBaUepY61Hy6sgjjP-117" target="4EUrBaUepY61Hy6sgjjP-101" edge="1">
          <mxGeometry relative="1" as="geometry">
            <Array as="points">
              <mxPoint x="200" y="960" />
              <mxPoint x="120" y="960" />
            </Array>
          </mxGeometry>
        </mxCell>
        <mxCell id="4EUrBaUepY61Hy6sgjjP-117" value="Intervento" style="swimlane;fontStyle=0;childLayout=stackLayout;horizontal=1;startSize=26;fillColor=none;horizontalStack=0;resizeParent=1;resizeParentMax=0;resizeLast=0;collapsible=1;marginBottom=0;whiteSpace=wrap;html=1;fontFamily=Helvetica;fontSize=12;fontColor=default;" parent="1" vertex="1">
          <mxGeometry x="200" y="912" width="140" height="142" as="geometry" />
        </mxCell>
        <mxCell id="Zfa2iGMe8uBs-4mBMOPn-1" value="Inizio: timestamp [1]" style="text;html=1;align=center;verticalAlign=middle;resizable=0;points=[];autosize=1;strokeColor=none;fillColor=none;" parent="4EUrBaUepY61Hy6sgjjP-117" vertex="1">
          <mxGeometry y="26" width="140" height="30" as="geometry" />
        </mxCell>
        <mxCell id="Zfa2iGMe8uBs-4mBMOPn-2" value="fine: timestamp[1]" style="text;html=1;align=center;verticalAlign=middle;resizable=0;points=[];autosize=1;strokeColor=none;fillColor=none;" parent="4EUrBaUepY61Hy6sgjjP-117" vertex="1">
          <mxGeometry y="56" width="140" height="30" as="geometry" />
        </mxCell>
        <mxCell id="Dn81AKusX0ZPsOJ_SFeg-28" value="id_Intervento : integer [1]" style="text;html=1;align=center;verticalAlign=middle;resizable=0;points=[];autosize=1;strokeColor=none;fillColor=none;" parent="4EUrBaUepY61Hy6sgjjP-117" vertex="1">
          <mxGeometry y="86" width="140" height="30" as="geometry" />
        </mxCell>
        <mxCell id="4EUrBaUepY61Hy6sgjjP-118" value="Abstract: String" style="text;strokeColor=none;fillColor=none;align=left;verticalAlign=top;spacingLeft=4;spacingRight=4;overflow=hidden;rotatable=0;points=[[0,0.5],[1,0.5]];portConstraint=eastwest;whiteSpace=wrap;html=1;fontSize=12;fontFamily=Helvetica;fontColor=default;" parent="4EUrBaUepY61Hy6sgjjP-117" vertex="1">
          <mxGeometry y="116" width="140" height="26" as="geometry" />
        </mxCell>
        <mxCell id="4EUrBaUepY61Hy6sgjjP-155" style="edgeStyle=orthogonalEdgeStyle;rounded=0;orthogonalLoop=1;jettySize=auto;html=1;exitX=0.5;exitY=0;exitDx=0;exitDy=0;fontFamily=Helvetica;fontSize=12;fontColor=default;" parent="1" source="4EUrBaUepY61Hy6sgjjP-122" target="4EUrBaUepY61Hy6sgjjP-91" edge="1">
          <mxGeometry relative="1" as="geometry">
            <Array as="points">
              <mxPoint x="440" y="790" />
              <mxPoint x="440" y="790" />
            </Array>
          </mxGeometry>
        </mxCell>
        <mxCell id="4EUrBaUepY61Hy6sgjjP-122" value="Intervallo" style="swimlane;fontStyle=0;childLayout=stackLayout;horizontal=1;startSize=26;fillColor=none;horizontalStack=0;resizeParent=1;resizeParentMax=0;resizeLast=0;collapsible=1;marginBottom=0;whiteSpace=wrap;html=1;fontFamily=Helvetica;fontSize=12;fontColor=default;" parent="1" vertex="1">
          <mxGeometry x="370" y="912" width="140" height="146" as="geometry" />
        </mxCell>
        <mxCell id="Zfa2iGMe8uBs-4mBMOPn-3" value="Inizio: timestamp [1]" style="text;html=1;align=center;verticalAlign=middle;resizable=0;points=[];autosize=1;strokeColor=none;fillColor=none;" parent="4EUrBaUepY61Hy6sgjjP-122" vertex="1">
          <mxGeometry y="26" width="140" height="30" as="geometry" />
        </mxCell>
        <mxCell id="Zfa2iGMe8uBs-4mBMOPn-4" value="fine: timestamp[1]" style="text;html=1;align=center;verticalAlign=middle;resizable=0;points=[];autosize=1;strokeColor=none;fillColor=none;" parent="4EUrBaUepY61Hy6sgjjP-122" vertex="1">
          <mxGeometry y="56" width="140" height="30" as="geometry" />
        </mxCell>
        <mxCell id="Dn81AKusX0ZPsOJ_SFeg-29" value="id_intervallo : integer [1]" style="text;html=1;align=center;verticalAlign=middle;resizable=0;points=[];autosize=1;strokeColor=none;fillColor=none;" parent="4EUrBaUepY61Hy6sgjjP-122" vertex="1">
          <mxGeometry y="86" width="140" height="30" as="geometry" />
        </mxCell>
        <mxCell id="Dn81AKusX0ZPsOJ_SFeg-27" value="tipologia: intervallo_ST" style="text;html=1;align=center;verticalAlign=middle;resizable=0;points=[];autosize=1;strokeColor=none;fillColor=none;" parent="4EUrBaUepY61Hy6sgjjP-122" vertex="1">
          <mxGeometry y="116" width="140" height="30" as="geometry" />
        </mxCell>
        <mxCell id="4EUrBaUepY61Hy6sgjjP-156" style="edgeStyle=orthogonalEdgeStyle;rounded=0;orthogonalLoop=1;jettySize=auto;html=1;exitX=0.5;exitY=0;exitDx=0;exitDy=0;fontFamily=Helvetica;fontSize=12;fontColor=default;" parent="1" source="4EUrBaUepY61Hy6sgjjP-129" target="4EUrBaUepY61Hy6sgjjP-91" edge="1">
          <mxGeometry relative="1" as="geometry">
            <Array as="points">
              <mxPoint x="610" y="880" />
              <mxPoint x="440" y="880" />
            </Array>
          </mxGeometry>
        </mxCell>
        <mxCell id="4EUrBaUepY61Hy6sgjjP-129" value="Evento Sociale" style="swimlane;fontStyle=0;childLayout=stackLayout;horizontal=1;startSize=26;fillColor=none;horizontalStack=0;resizeParent=1;resizeParentMax=0;resizeLast=0;collapsible=1;marginBottom=0;whiteSpace=wrap;html=1;fontFamily=Helvetica;fontSize=12;fontColor=default;" parent="1" vertex="1">
          <mxGeometry x="540" y="912" width="140" height="142" as="geometry" />
        </mxCell>
        <mxCell id="Dn81AKusX0ZPsOJ_SFeg-30" value="id_evento : integer [1]" style="text;html=1;align=center;verticalAlign=middle;resizable=0;points=[];autosize=1;strokeColor=none;fillColor=none;" parent="4EUrBaUepY61Hy6sgjjP-129" vertex="1">
          <mxGeometry y="26" width="140" height="30" as="geometry" />
        </mxCell>
        <mxCell id="Zfa2iGMe8uBs-4mBMOPn-5" value="Inizio: timestamp [1]" style="text;html=1;align=center;verticalAlign=middle;resizable=0;points=[];autosize=1;strokeColor=none;fillColor=none;" parent="4EUrBaUepY61Hy6sgjjP-129" vertex="1">
          <mxGeometry y="56" width="140" height="30" as="geometry" />
        </mxCell>
        <mxCell id="Zfa2iGMe8uBs-4mBMOPn-6" value="fine: timestamp[1]" style="text;html=1;align=center;verticalAlign=middle;resizable=0;points=[];autosize=1;strokeColor=none;fillColor=none;" parent="4EUrBaUepY61Hy6sgjjP-129" vertex="1">
          <mxGeometry y="86" width="140" height="30" as="geometry" />
        </mxCell>
        <mxCell id="4EUrBaUepY61Hy6sgjjP-130" value="Tipologia: String [1]" style="text;strokeColor=none;fillColor=none;align=left;verticalAlign=top;spacingLeft=4;spacingRight=4;overflow=hidden;rotatable=0;points=[[0,0.5],[1,0.5]];portConstraint=eastwest;whiteSpace=wrap;html=1;fontSize=12;fontFamily=Helvetica;fontColor=default;" parent="4EUrBaUepY61Hy6sgjjP-129" vertex="1">
          <mxGeometry y="116" width="140" height="26" as="geometry" />
        </mxCell>
        <mxCell id="4EUrBaUepY61Hy6sgjjP-143" value="1" style="text;html=1;align=center;verticalAlign=middle;resizable=0;points=[];autosize=1;strokeColor=none;fillColor=none;fontSize=12;fontFamily=Helvetica;fontColor=default;" parent="1" vertex="1">
          <mxGeometry x="414" y="634" width="30" height="30" as="geometry" />
        </mxCell>
        <mxCell id="4EUrBaUepY61Hy6sgjjP-144" value="1" style="text;html=1;align=center;verticalAlign=middle;resizable=0;points=[];autosize=1;strokeColor=none;fillColor=none;fontSize=12;fontFamily=Helvetica;fontColor=default;" parent="1" vertex="1">
          <mxGeometry x="415" y="668" width="30" height="30" as="geometry" />
        </mxCell>
        <mxCell id="4EUrBaUepY61Hy6sgjjP-147" value="*" style="text;html=1;align=center;verticalAlign=middle;resizable=0;points=[];autosize=1;strokeColor=none;fillColor=none;fontSize=12;fontFamily=Helvetica;fontColor=default;" parent="1" vertex="1">
          <mxGeometry x="165" y="930" width="30" height="30" as="geometry" />
        </mxCell>
        <mxCell id="4EUrBaUepY61Hy6sgjjP-149" value="*" style="text;html=1;align=center;verticalAlign=middle;resizable=0;points=[];autosize=1;strokeColor=none;fillColor=none;fontSize=12;fontFamily=Helvetica;fontColor=default;" parent="1" vertex="1">
          <mxGeometry x="315" y="558" width="30" height="30" as="geometry" />
        </mxCell>
        <mxCell id="4EUrBaUepY61Hy6sgjjP-150" value="*" style="text;html=1;align=center;verticalAlign=middle;resizable=0;points=[];autosize=1;strokeColor=none;fillColor=none;fontSize=12;fontFamily=Helvetica;fontColor=default;" parent="1" vertex="1">
          <mxGeometry x="275" y="618" width="30" height="30" as="geometry" />
        </mxCell>
        <mxCell id="4EUrBaUepY61Hy6sgjjP-151" value="*" style="text;html=1;align=center;verticalAlign=middle;resizable=0;points=[];autosize=1;strokeColor=none;fillColor=none;fontSize=12;fontFamily=Helvetica;fontColor=default;" parent="1" vertex="1">
          <mxGeometry x="125" y="618" width="30" height="30" as="geometry" />
        </mxCell>
        <mxCell id="4EUrBaUepY61Hy6sgjjP-152" value="1" style="text;html=1;align=center;verticalAlign=middle;resizable=0;points=[];autosize=1;strokeColor=none;fillColor=none;fontSize=12;fontFamily=Helvetica;fontColor=default;" parent="1" vertex="1">
          <mxGeometry x="290" y="136" width="30" height="30" as="geometry" />
        </mxCell>
        <mxCell id="4EUrBaUepY61Hy6sgjjP-153" value="*" style="text;html=1;align=center;verticalAlign=middle;resizable=0;points=[];autosize=1;strokeColor=none;fillColor=none;fontSize=12;fontFamily=Helvetica;fontColor=default;" parent="1" vertex="1">
          <mxGeometry x="95" y="8" width="30" height="30" as="geometry" />
        </mxCell>
        <mxCell id="4EUrBaUepY61Hy6sgjjP-154" value="1" style="text;html=1;align=center;verticalAlign=middle;resizable=0;points=[];autosize=1;strokeColor=none;fillColor=none;fontSize=12;fontFamily=Helvetica;fontColor=default;" parent="1" vertex="1">
          <mxGeometry x="190" y="200" width="30" height="30" as="geometry" />
        </mxCell>
        <mxCell id="oplTFMq57OWzlQ45hFhS-3" value="prevede" style="text;html=1;align=center;verticalAlign=middle;resizable=0;points=[];autosize=1;strokeColor=none;fillColor=none;" parent="1" vertex="1">
          <mxGeometry x="209" y="810" width="70" height="30" as="geometry" />
        </mxCell>
        <mxCell id="oplTFMq57OWzlQ45hFhS-5" value="partecipazione" style="text;html=1;align=center;verticalAlign=middle;resizable=0;points=[];autosize=1;strokeColor=none;fillColor=none;horizontal=0;" parent="1" vertex="1">
          <mxGeometry x="220" y="588" width="100" height="30" as="geometry" />
        </mxCell>
        <mxCell id="oplTFMq57OWzlQ45hFhS-6" value="Effettua" style="text;html=1;align=center;verticalAlign=middle;resizable=0;points=[];autosize=1;strokeColor=none;fillColor=none;" parent="1" vertex="1">
          <mxGeometry x="114" y="960" width="60" height="30" as="geometry" />
        </mxCell>
        <mxCell id="oplTFMq57OWzlQ45hFhS-7" value="svolta in" style="text;html=1;align=center;verticalAlign=middle;resizable=0;points=[];autosize=1;strokeColor=none;fillColor=none;horizontal=0;" parent="1" vertex="1">
          <mxGeometry x="487" y="690" width="70" height="30" as="geometry" />
        </mxCell>
        <mxCell id="oplTFMq57OWzlQ45hFhS-9" value="istituzione" style="text;html=1;align=center;verticalAlign=middle;resizable=0;points=[];autosize=1;strokeColor=none;fillColor=none;" parent="1" vertex="1">
          <mxGeometry x="140" y="10" width="80" height="30" as="geometry" />
        </mxCell>
        <mxCell id="oplTFMq57OWzlQ45hFhS-10" value="istituzione" style="text;html=1;align=center;verticalAlign=middle;resizable=0;points=[];autosize=1;strokeColor=none;fillColor=none;horizontal=0;" parent="1" vertex="1">
          <mxGeometry y="569.5" width="80" height="30" as="geometry" />
        </mxCell>
        <mxCell id="oplTFMq57OWzlQ45hFhS-12" value="istituzione" style="text;html=1;align=center;verticalAlign=middle;resizable=0;points=[];autosize=1;strokeColor=none;fillColor=none;horizontal=0;" parent="1" vertex="1">
          <mxGeometry x="200" y="448" width="80" height="30" as="geometry" />
        </mxCell>
        <mxCell id="oplTFMq57OWzlQ45hFhS-13" value="*" style="text;html=1;align=center;verticalAlign=middle;resizable=0;points=[];autosize=1;strokeColor=none;fillColor=none;fontSize=12;fontFamily=Helvetica;fontColor=default;" parent="1" vertex="1">
          <mxGeometry x="215" y="618" width="30" height="30" as="geometry" />
        </mxCell>
        <mxCell id="Dn81AKusX0ZPsOJ_SFeg-1" value="Valuta" style="swimlane;fontStyle=1;align=center;verticalAlign=top;childLayout=stackLayout;horizontal=1;startSize=26;horizontalStack=0;resizeParent=1;resizeParentMax=0;resizeLast=0;collapsible=1;marginBottom=0;whiteSpace=wrap;html=1;" parent="1" vertex="1">
          <mxGeometry x="630" y="62" width="160" height="104" as="geometry" />
        </mxCell>
        <mxCell id="Dn81AKusX0ZPsOJ_SFeg-2" value="iso : char(3) [1]" style="text;strokeColor=none;fillColor=none;align=left;verticalAlign=top;spacingLeft=4;spacingRight=4;overflow=hidden;rotatable=0;points=[[0,0.5],[1,0.5]];portConstraint=eastwest;whiteSpace=wrap;html=1;" parent="Dn81AKusX0ZPsOJ_SFeg-1" vertex="1">
          <mxGeometry y="26" width="160" height="26" as="geometry" />
        </mxCell>
        <mxCell id="Dn81AKusX0ZPsOJ_SFeg-3" value="Nome : text [1]" style="text;strokeColor=none;fillColor=none;align=left;verticalAlign=top;spacingLeft=4;spacingRight=4;overflow=hidden;rotatable=0;points=[[0,0.5],[1,0.5]];portConstraint=eastwest;whiteSpace=wrap;html=1;" parent="Dn81AKusX0ZPsOJ_SFeg-1" vertex="1">
          <mxGeometry y="52" width="160" height="26" as="geometry" />
        </mxCell>
        <mxCell id="Dn81AKusX0ZPsOJ_SFeg-4" value="Simbolo: char(1) [1]" style="text;strokeColor=none;fillColor=none;align=left;verticalAlign=top;spacingLeft=4;spacingRight=4;overflow=hidden;rotatable=0;points=[[0,0.5],[1,0.5]];portConstraint=eastwest;whiteSpace=wrap;html=1;" parent="Dn81AKusX0ZPsOJ_SFeg-1" vertex="1">
          <mxGeometry y="78" width="160" height="26" as="geometry" />
        </mxCell>
        <mxCell id="Dn81AKusX0ZPsOJ_SFeg-5" value="1" style="text;html=1;align=center;verticalAlign=middle;resizable=0;points=[];autosize=1;strokeColor=none;fillColor=none;" parent="1" vertex="1">
          <mxGeometry x="710" y="170" width="30" height="30" as="geometry" />
        </mxCell>
        <mxCell id="Dn81AKusX0ZPsOJ_SFeg-6" style="edgeStyle=orthogonalEdgeStyle;rounded=0;orthogonalLoop=1;jettySize=auto;html=1;endArrow=none;endFill=0;" parent="1" source="4EUrBaUepY61Hy6sgjjP-38" target="Dn81AKusX0ZPsOJ_SFeg-1" edge="1">
          <mxGeometry relative="1" as="geometry">
            <Array as="points">
              <mxPoint x="710" y="210" />
            </Array>
          </mxGeometry>
        </mxCell>
        <mxCell id="Dn81AKusX0ZPsOJ_SFeg-10" style="edgeStyle=orthogonalEdgeStyle;rounded=0;orthogonalLoop=1;jettySize=auto;html=1;exitX=0;exitY=0.5;exitDx=0;exitDy=0;entryX=0.993;entryY=0.667;entryDx=0;entryDy=0;entryPerimeter=0;endArrow=none;endFill=0;" parent="1" source="Dn81AKusX0ZPsOJ_SFeg-7" target="Dn81AKusX0ZPsOJ_SFeg-8" edge="1">
          <mxGeometry relative="1" as="geometry" />
        </mxCell>
        <mxCell id="Dn81AKusX0ZPsOJ_SFeg-7" value="&lt;p style=&quot;margin:0px;margin-top:4px;text-align:center;&quot;&gt;&lt;i&gt;&amp;lt;&amp;lt;enum&amp;gt;&amp;gt;&lt;/i&gt;&lt;br&gt;&lt;b&gt;Comitato_ST&lt;/b&gt;&lt;/p&gt;&lt;hr size=&quot;1&quot;&gt;&lt;p style=&quot;margin:0px;margin-left:4px;&quot;&gt;&amp;nbsp;Scientifico&lt;/p&gt;&lt;p style=&quot;margin:0px;margin-left:4px;&quot;&gt;&amp;nbsp;Locale&lt;/p&gt;" style="verticalAlign=top;align=left;overflow=fill;fontSize=12;fontFamily=Helvetica;html=1;whiteSpace=wrap;" parent="1" vertex="1">
          <mxGeometry x="510" y="62" width="90" height="80" as="geometry" />
        </mxCell>
        <mxCell id="Dn81AKusX0ZPsOJ_SFeg-31" value="*" style="text;html=1;align=center;verticalAlign=middle;resizable=0;points=[];autosize=1;strokeColor=none;fillColor=none;" parent="1" vertex="1">
          <mxGeometry x="444" y="882" width="30" height="30" as="geometry" />
        </mxCell>
        <mxCell id="Dn81AKusX0ZPsOJ_SFeg-32" value="*" style="text;html=1;align=center;verticalAlign=middle;resizable=0;points=[];autosize=1;strokeColor=none;fillColor=none;" parent="1" vertex="1">
          <mxGeometry x="620" y="880" width="30" height="30" as="geometry" />
        </mxCell>
        <mxCell id="Dn81AKusX0ZPsOJ_SFeg-33" value="*" style="text;html=1;align=center;verticalAlign=middle;resizable=0;points=[];autosize=1;strokeColor=none;fillColor=none;" parent="1" vertex="1">
          <mxGeometry x="250" y="880" width="30" height="30" as="geometry" />
        </mxCell>
        <mxCell id="Dn81AKusX0ZPsOJ_SFeg-35" value="1" style="text;html=1;align=center;verticalAlign=middle;resizable=0;points=[];autosize=1;strokeColor=none;fillColor=none;" parent="1" vertex="1">
          <mxGeometry x="245" y="274" width="30" height="30" as="geometry" />
        </mxCell>
        <mxCell id="Dn81AKusX0ZPsOJ_SFeg-36" value="1" style="text;html=1;align=center;verticalAlign=middle;resizable=0;points=[];autosize=1;strokeColor=none;fillColor=none;" parent="1" vertex="1">
          <mxGeometry x="20" y="222" width="30" height="30" as="geometry" />
        </mxCell>
        <mxCell id="Dn81AKusX0ZPsOJ_SFeg-37" value="1" style="text;html=1;align=center;verticalAlign=middle;resizable=0;points=[];autosize=1;strokeColor=none;fillColor=none;" parent="1" vertex="1">
          <mxGeometry x="125" y="808" width="30" height="30" as="geometry" />
        </mxCell>
        <mxCell id="Dn81AKusX0ZPsOJ_SFeg-38" value="0..1" style="text;html=1;align=center;verticalAlign=middle;resizable=0;points=[];autosize=1;strokeColor=none;fillColor=none;" parent="1" vertex="1">
          <mxGeometry x="20" y="808" width="40" height="30" as="geometry" />
        </mxCell>
        <mxCell id="Dn81AKusX0ZPsOJ_SFeg-39" value="0..*" style="text;html=1;align=center;verticalAlign=middle;resizable=0;points=[];autosize=1;strokeColor=none;fillColor=none;" parent="1" vertex="1">
          <mxGeometry x="344" y="756" width="40" height="30" as="geometry" />
        </mxCell>
        <mxCell id="Zfa2iGMe8uBs-4mBMOPn-8" style="edgeStyle=orthogonalEdgeStyle;rounded=0;orthogonalLoop=1;jettySize=auto;html=1;exitX=0.5;exitY=1;exitDx=0;exitDy=0;endArrow=none;endFill=0;" parent="1" source="Dn81AKusX0ZPsOJ_SFeg-44" target="4EUrBaUepY61Hy6sgjjP-122" edge="1">
          <mxGeometry relative="1" as="geometry">
            <Array as="points">
              <mxPoint x="755" y="1100" />
              <mxPoint x="440" y="1100" />
            </Array>
          </mxGeometry>
        </mxCell>
        <mxCell id="Dn81AKusX0ZPsOJ_SFeg-44" value="&lt;p style=&quot;margin:0px;margin-top:4px;text-align:center;&quot;&gt;&lt;i&gt;&amp;lt;&amp;lt;enum&amp;gt;&amp;gt;&lt;/i&gt;&lt;br&gt;&lt;b&gt;Intervallo_ST&lt;/b&gt;&lt;/p&gt;&lt;hr size=&quot;1&quot;&gt;&lt;p style=&quot;margin:0px;margin-left:4px;&quot;&gt;&amp;nbsp;Pranzo&lt;/p&gt;&lt;p style=&quot;margin:0px;margin-left:4px;&quot;&gt;&amp;nbsp;Coffee Break&lt;/p&gt;" style="verticalAlign=top;align=left;overflow=fill;fontSize=12;fontFamily=Helvetica;html=1;whiteSpace=wrap;" parent="1" vertex="1">
          <mxGeometry x="710" y="927" width="90" height="78" as="geometry" />
        </mxCell>
        <mxCell id="8OHhEzNEOEEAv_LkR56g-1" style="edgeStyle=orthogonalEdgeStyle;rounded=0;orthogonalLoop=1;jettySize=auto;html=1;endArrow=none;endFill=0;" parent="1" source="4EUrBaUepY61Hy6sgjjP-24" target="4EUrBaUepY61Hy6sgjjP-38" edge="1">
          <mxGeometry relative="1" as="geometry">
            <Array as="points">
              <mxPoint x="470" y="220" />
            </Array>
          </mxGeometry>
        </mxCell>
        <mxCell id="8OHhEzNEOEEAv_LkR56g-4" value="1" style="text;html=1;align=center;verticalAlign=middle;resizable=0;points=[];autosize=1;strokeColor=none;fillColor=none;" parent="1" vertex="1">
          <mxGeometry x="720" y="260" width="30" height="30" as="geometry" />
        </mxCell>
        <mxCell id="8OHhEzNEOEEAv_LkR56g-5" value="*" style="text;html=1;align=center;verticalAlign=middle;resizable=0;points=[];autosize=1;strokeColor=none;fillColor=none;" parent="1" vertex="1">
          <mxGeometry x="660" y="243" width="30" height="30" as="geometry" />
        </mxCell>
        <mxCell id="8OHhEzNEOEEAv_LkR56g-6" value="*" style="text;html=1;align=center;verticalAlign=middle;resizable=0;points=[];autosize=1;strokeColor=none;fillColor=none;" parent="1" vertex="1">
          <mxGeometry x="470" y="192" width="30" height="30" as="geometry" />
        </mxCell>
        <mxCell id="8OHhEzNEOEEAv_LkR56g-7" value="1" style="text;html=1;align=center;verticalAlign=middle;resizable=0;points=[];autosize=1;strokeColor=none;fillColor=none;" parent="1" vertex="1">
          <mxGeometry x="470" y="260" width="30" height="30" as="geometry" />
        </mxCell>
        <mxCell id="8OHhEzNEOEEAv_LkR56g-8" value="1" style="text;html=1;align=center;verticalAlign=middle;resizable=0;points=[];autosize=1;strokeColor=none;fillColor=none;" parent="1" vertex="1">
          <mxGeometry x="660" y="178" width="30" height="30" as="geometry" />
        </mxCell>
        <mxCell id="mUlWQSSshUq4uLIK7Gqg-3" value="svolta in" style="text;html=1;align=center;verticalAlign=middle;resizable=0;points=[];autosize=1;strokeColor=none;fillColor=none;" parent="1" vertex="1">
          <mxGeometry x="545" y="380" width="70" height="30" as="geometry" />
        </mxCell>
        <mxCell id="mUlWQSSshUq4uLIK7Gqg-4" value="&lt;p style=&quot;margin:0px;margin-top:4px;text-align:center;&quot;&gt;&lt;i&gt;&amp;lt;&amp;lt;enum&amp;gt;&amp;gt;&lt;/i&gt;&lt;br&gt;&lt;b&gt;Titolo_ST&lt;/b&gt;&lt;/p&gt;&lt;hr size=&quot;1&quot;&gt;&lt;p style=&quot;margin:0px;margin-left:4px;&quot;&gt;&amp;nbsp;Dottore&lt;/p&gt;&lt;p style=&quot;margin:0px;margin-left:4px;&quot;&gt;&amp;nbsp;Dottoressa&lt;/p&gt;&lt;p style=&quot;margin:0px;margin-left:4px;&quot;&gt;&amp;nbsp;Professore&lt;/p&gt;&lt;p style=&quot;margin:0px;margin-left:4px;&quot;&gt;&amp;nbsp;Professoressa&lt;/p&gt;&lt;p style=&quot;margin:0px;margin-left:4px;&quot;&gt;&amp;nbsp;Ricercatore&lt;/p&gt;&lt;p style=&quot;margin:0px;margin-left:4px;&quot;&gt;&amp;nbsp;Ricercatrice&lt;/p&gt;&lt;p style=&quot;margin:0px;margin-left:4px;&quot;&gt;&amp;nbsp;Ingegnere&lt;/p&gt;" style="verticalAlign=top;align=left;overflow=fill;fontSize=12;fontFamily=Helvetica;html=1;whiteSpace=wrap;" parent="1" vertex="1">
          <mxGeometry x="20" y="960" width="90" height="160" as="geometry" />
        </mxCell>
        <mxCell id="pdstdjKc1SYXIqGhfZRG-3" value="Indirizzo" style="swimlane;fontStyle=0;childLayout=stackLayout;horizontal=1;startSize=26;fillColor=none;horizontalStack=0;resizeParent=1;resizeParentMax=0;resizeLast=0;collapsible=1;marginBottom=0;whiteSpace=wrap;html=1;" parent="1" vertex="1">
          <mxGeometry x="665" y="548" width="140" height="182" as="geometry" />
        </mxCell>
        <mxCell id="pdstdjKc1SYXIqGhfZRG-4" value="Via: varchar(50) [1]" style="text;strokeColor=none;fillColor=none;align=left;verticalAlign=top;spacingLeft=4;spacingRight=4;overflow=hidden;rotatable=0;points=[[0,0.5],[1,0.5]];portConstraint=eastwest;whiteSpace=wrap;html=1;" parent="pdstdjKc1SYXIqGhfZRG-3" vertex="1">
          <mxGeometry y="26" width="140" height="26" as="geometry" />
        </mxCell>
        <mxCell id="pdstdjKc1SYXIqGhfZRG-5" value="Civico: varchar(5)" style="text;strokeColor=none;fillColor=none;align=left;verticalAlign=top;spacingLeft=4;spacingRight=4;overflow=hidden;rotatable=0;points=[[0,0.5],[1,0.5]];portConstraint=eastwest;whiteSpace=wrap;html=1;" parent="pdstdjKc1SYXIqGhfZRG-3" vertex="1">
          <mxGeometry y="52" width="140" height="26" as="geometry" />
        </mxCell>
        <mxCell id="pdstdjKc1SYXIqGhfZRG-6" value="CAP: varchar(5)[1]" style="text;strokeColor=none;fillColor=none;align=left;verticalAlign=top;spacingLeft=4;spacingRight=4;overflow=hidden;rotatable=0;points=[[0,0.5],[1,0.5]];portConstraint=eastwest;whiteSpace=wrap;html=1;" parent="pdstdjKc1SYXIqGhfZRG-3" vertex="1">
          <mxGeometry y="78" width="140" height="26" as="geometry" />
        </mxCell>
        <mxCell id="pdstdjKc1SYXIqGhfZRG-8" value="City: varchar(100)[1]" style="text;strokeColor=none;fillColor=none;align=left;verticalAlign=top;spacingLeft=4;spacingRight=4;overflow=hidden;rotatable=0;points=[[0,0.5],[1,0.5]];portConstraint=eastwest;whiteSpace=wrap;html=1;" parent="pdstdjKc1SYXIqGhfZRG-3" vertex="1">
          <mxGeometry y="104" width="140" height="26" as="geometry" />
        </mxCell>
        <mxCell id="pdstdjKc1SYXIqGhfZRG-9" value="Provincia: char(2)" style="text;strokeColor=none;fillColor=none;align=left;verticalAlign=top;spacingLeft=4;spacingRight=4;overflow=hidden;rotatable=0;points=[[0,0.5],[1,0.5]];portConstraint=eastwest;whiteSpace=wrap;html=1;" parent="pdstdjKc1SYXIqGhfZRG-3" vertex="1">
          <mxGeometry y="130" width="140" height="26" as="geometry" />
        </mxCell>
        <mxCell id="pdstdjKc1SYXIqGhfZRG-10" value="Nazione: varchar(50)" style="text;strokeColor=none;fillColor=none;align=left;verticalAlign=top;spacingLeft=4;spacingRight=4;overflow=hidden;rotatable=0;points=[[0,0.5],[1,0.5]];portConstraint=eastwest;whiteSpace=wrap;html=1;" parent="pdstdjKc1SYXIqGhfZRG-3" vertex="1">
          <mxGeometry y="156" width="140" height="26" as="geometry" />
        </mxCell>
        <mxCell id="pdstdjKc1SYXIqGhfZRG-11" style="edgeStyle=orthogonalEdgeStyle;rounded=0;orthogonalLoop=1;jettySize=auto;html=1;exitX=1;exitY=0.5;exitDx=0;exitDy=0;entryX=0.5;entryY=0;entryDx=0;entryDy=0;endArrow=none;endFill=0;" parent="1" source="4EUrBaUepY61Hy6sgjjP-73" target="pdstdjKc1SYXIqGhfZRG-3" edge="1">
          <mxGeometry relative="1" as="geometry">
            <Array as="points">
              <mxPoint x="695" y="480" />
              <mxPoint x="735" y="480" />
            </Array>
          </mxGeometry>
        </mxCell>
        <mxCell id="pdstdjKc1SYXIqGhfZRG-13" value="1" style="text;html=1;align=center;verticalAlign=middle;resizable=0;points=[];autosize=1;strokeColor=none;fillColor=none;" parent="1" vertex="1">
          <mxGeometry x="690" y="456" width="30" height="30" as="geometry" />
        </mxCell>
        <mxCell id="pdstdjKc1SYXIqGhfZRG-14" value="1" style="text;html=1;align=center;verticalAlign=middle;resizable=0;points=[];autosize=1;strokeColor=none;fillColor=none;" parent="1" vertex="1">
          <mxGeometry x="730" y="520" width="30" height="30" as="geometry" />
        </mxCell>
        <mxCell id="CctrhRpK3LrzLkIw9ZLC-6" value="Utente" style="swimlane;fontStyle=0;childLayout=stackLayout;horizontal=1;startSize=26;fillColor=none;horizontalStack=0;resizeParent=1;resizeParentMax=0;resizeLast=0;collapsible=1;marginBottom=0;whiteSpace=wrap;html=1;fontFamily=Helvetica;fontSize=12;fontColor=default;" parent="1" vertex="1">
          <mxGeometry x="64" y="310" width="156" height="212" as="geometry" />
        </mxCell>
        <mxCell id="CctrhRpK3LrzLkIw9ZLC-7" value="&amp;nbsp;id_Utente : integer [1]" style="text;html=1;align=left;verticalAlign=middle;resizable=0;points=[];autosize=1;strokeColor=none;fillColor=none;fontStyle=0" parent="CctrhRpK3LrzLkIw9ZLC-6" vertex="1">
          <mxGeometry y="26" width="156" height="30" as="geometry" />
        </mxCell>
        <mxCell id="CctrhRpK3LrzLkIw9ZLC-11" value="Nome : String [1]" style="text;strokeColor=none;fillColor=none;align=left;verticalAlign=top;spacingLeft=4;spacingRight=4;overflow=hidden;rotatable=0;points=[[0,0.5],[1,0.5]];portConstraint=eastwest;whiteSpace=wrap;html=1;" parent="CctrhRpK3LrzLkIw9ZLC-6" vertex="1">
          <mxGeometry y="56" width="156" height="26" as="geometry" />
        </mxCell>
        <mxCell id="CctrhRpK3LrzLkIw9ZLC-8" value="Cognome: String [1]" style="text;strokeColor=none;fillColor=none;align=left;verticalAlign=top;spacingLeft=4;spacingRight=4;overflow=hidden;rotatable=0;points=[[0,0.5],[1,0.5]];portConstraint=eastwest;whiteSpace=wrap;html=1;" parent="CctrhRpK3LrzLkIw9ZLC-6" vertex="1">
          <mxGeometry y="82" width="156" height="26" as="geometry" />
        </mxCell>
        <mxCell id="CctrhRpK3LrzLkIw9ZLC-9" value="Titolo: Titolo_ST[1]" style="text;strokeColor=none;fillColor=none;align=left;verticalAlign=top;spacingLeft=4;spacingRight=4;overflow=hidden;rotatable=0;points=[[0,0.5],[1,0.5]];portConstraint=eastwest;whiteSpace=wrap;html=1;" parent="CctrhRpK3LrzLkIw9ZLC-6" vertex="1">
          <mxGeometry y="108" width="156" height="26" as="geometry" />
        </mxCell>
        <mxCell id="CctrhRpK3LrzLkIw9ZLC-12" value="Email : String" style="text;strokeColor=none;fillColor=none;align=left;verticalAlign=top;spacingLeft=4;spacingRight=4;overflow=hidden;rotatable=0;points=[[0,0.5],[1,0.5]];portConstraint=eastwest;whiteSpace=wrap;html=1;" parent="CctrhRpK3LrzLkIw9ZLC-6" vertex="1">
          <mxGeometry y="134" width="156" height="26" as="geometry" />
        </mxCell>
        <mxCell id="CctrhRpK3LrzLkIw9ZLC-13" value="Username: String [1]" style="text;strokeColor=none;fillColor=none;align=left;verticalAlign=top;spacingLeft=4;spacingRight=4;overflow=hidden;rotatable=0;points=[[0,0.5],[1,0.5]];portConstraint=eastwest;whiteSpace=wrap;html=1;" parent="CctrhRpK3LrzLkIw9ZLC-6" vertex="1">
          <mxGeometry y="160" width="156" height="26" as="geometry" />
        </mxCell>
        <mxCell id="CctrhRpK3LrzLkIw9ZLC-10" value="Password: String[1]" style="text;strokeColor=none;fillColor=none;align=left;verticalAlign=top;spacingLeft=4;spacingRight=4;overflow=hidden;rotatable=0;points=[[0,0.5],[1,0.5]];portConstraint=eastwest;whiteSpace=wrap;html=1;" parent="CctrhRpK3LrzLkIw9ZLC-6" vertex="1">
          <mxGeometry y="186" width="156" height="26" as="geometry" />
        </mxCell>
        <mxCell id="CctrhRpK3LrzLkIw9ZLC-15" style="edgeStyle=orthogonalEdgeStyle;rounded=0;orthogonalLoop=1;jettySize=auto;html=1;exitX=0;exitY=0.5;exitDx=0;exitDy=0;entryX=0.5;entryY=0;entryDx=0;entryDy=0;endArrow=none;endFill=0;" parent="1" source="4EUrBaUepY61Hy6sgjjP-53" target="CctrhRpK3LrzLkIw9ZLC-6" edge="1">
          <mxGeometry relative="1" as="geometry">
            <Array as="points">
              <mxPoint x="110" y="261" />
              <mxPoint x="110" y="310" />
            </Array>
          </mxGeometry>
        </mxCell>
        <mxCell id="CctrhRpK3LrzLkIw9ZLC-16" style="edgeStyle=orthogonalEdgeStyle;rounded=0;orthogonalLoop=1;jettySize=auto;html=1;exitX=1;exitY=0.5;exitDx=0;exitDy=0;endArrow=none;endFill=0;" parent="1" source="CctrhRpK3LrzLkIw9ZLC-11" target="4EUrBaUepY61Hy6sgjjP-24" edge="1">
          <mxGeometry relative="1" as="geometry">
            <Array as="points">
              <mxPoint x="220" y="380" />
            </Array>
          </mxGeometry>
        </mxCell>
        <mxCell id="1YewTfcUVTJhWn5HDf7L-1" value="1" style="text;html=1;align=center;verticalAlign=middle;resizable=0;points=[];autosize=1;strokeColor=none;fillColor=none;" vertex="1" parent="1">
          <mxGeometry x="229" y="353" width="30" height="30" as="geometry" />
        </mxCell>
        <mxCell id="1YewTfcUVTJhWn5HDf7L-2" value="*" style="text;html=1;align=center;verticalAlign=middle;resizable=0;points=[];autosize=1;strokeColor=none;fillColor=none;" vertex="1" parent="1">
          <mxGeometry x="291" y="353" width="30" height="30" as="geometry" />
        </mxCell>
        <mxCell id="1YewTfcUVTJhWn5HDf7L-3" value="crea" style="text;html=1;align=center;verticalAlign=middle;resizable=0;points=[];autosize=1;strokeColor=none;fillColor=none;" vertex="1" parent="1">
          <mxGeometry x="250" y="380" width="50" height="30" as="geometry" />
        </mxCell>
      </root>
    </mxGraphModel>
  </diagram>
</mxfile>
